<svg xmlns="http://www.w3.org/2000/svg" width="14.801" height="18" viewBox="0 0 14.801 18">
  <path id="icon-logout" d="M14.4,5A1.41,1.41,0,0,0,13,6.4a.6.6,0,1,0,1.2,0,.188.188,0,0,1,.2-.2h6.4a.6.6,0,1,0,0-1.2Zm-.806,2.787A.625.625,0,0,0,13,8.4V21.6A1.41,1.41,0,0,0,14.4,23h6.4a.6.6,0,1,0,0-1.2H14.4a.188.188,0,0,1-.2-.2V8.4a.6.6,0,0,0-.606-.612Zm9.137,1.206a.6.6,0,0,0-.356,1.031L25.75,13.4H17.2a.6.6,0,1,0,0,1.2h8.55l-3.375,3.375a.6.6,0,1,0,.85.85l4.4-4.4a.6.6,0,0,0,0-.85l-4.4-4.4a.679.679,0,0,0-.494-.181Z" transform="translate(-13 -5)" fill="#bac1d9"/>
</svg>
