<?xml version="1.0" encoding="utf-8"?>
<!-- Generator: Adobe Illustrator 25.2.3, SVG Export Plug-In . SVG Version: 6.00 Build 0)  -->
<svg version="1.1" id="icon-notifications-outline" xmlns="http://www.w3.org/2000/svg" xmlns:xlink="http://www.w3.org/1999/xlink"
	 x="0px" y="0px" viewBox="0 0 18 22" style="enable-background:new 0 0 18 22;" xml:space="preserve">
<style type="text/css">
	.st0{fill:#F9E7AA;}
	.st1{fill:#FF0000;}
</style>
<path id="icon-notifications-outline-2" class="st0" d="M9,22c1.2,0,2.2-1,2.2-2.3H6.8C6.8,21,7.8,22,9,22z M15.8,15.2V9.6
	c0-3.5-1.8-6.4-5.1-7.1V1.7C10.7,0.8,10,0,9,0S7.3,0.7,7.3,1.6c0,0,0,0.1,0,0.1v0.8C4.1,3.2,2.2,6.1,2.2,9.6v5.6L0,17.5v1.1h18v-1.1
	L15.8,15.2z M13.5,16.4h-9V9.6c0-2.8,1.7-5.1,4.5-5.1s4.5,2.3,4.5,5.1V16.4z"/>
<circle class="st1" cx="14.2" cy="8.2" r="3.1"/>
</svg>
