<svg xmlns="http://www.w3.org/2000/svg" width="24" height="23" viewBox="0 0 24 23">
  <g id="icon-send" transform="translate(0 0.001)">
    <path id="Path_51" data-name="Path 51" d="M.658,11.647c-.909.471-.871,1.161.082,1.534l2.823,1.1a3.654,3.654,0,0,0,3.205-.453l12.26-9.552c.806-.626.892-.534.192.206L9.529,14.734a1.153,1.153,0,0,0,.462,2.01l.331.127c.957.366,2.516.979,3.467,1.361l3.131,1.26a1.623,1.623,0,0,0,2.238-1.046l4.772-17.33C24.2.138,23.676-.277,22.767.193Z" transform="translate(0 0)" fill="#f9e7aa"/>
    <path id="Path_52" data-name="Path 52" d="M10.129,27.867c-.056.165,1.931-2.842,1.931-2.842a1.462,1.462,0,0,0-.706-2.242l-2.167-.876c-.949-.383-1.4.067-1.011,1C8.176,22.91,10.187,27.7,10.129,27.867Z" transform="translate(-1.723 -4.874)" fill="#f9e7aa"/>
  </g>
</svg>