<svg id="icon-notifications-outline" xmlns="http://www.w3.org/2000/svg" width="18" height="22" viewBox="0 0 18 22">
  <path id="icon-notifications-outline-2" data-name="icon-notifications-outline" d="M15,25.75a2.26,2.26,0,0,0,2.25-2.256h-4.5A2.26,2.26,0,0,0,15,25.75Zm6.75-6.769V13.34c0-3.464-1.834-6.363-5.062-7.13V5.442a1.688,1.688,0,1,0-3.375,0v.767C10.1,6.977,8.25,9.865,8.25,13.34v5.641L6,21.237v1.128H24V21.237ZM19.5,20.109h-9V13.34c0-2.8,1.7-5.077,4.5-5.077s4.5,2.279,4.5,5.077Z" transform="translate(-6 -3.75)" fill="#f9e7aa"/>
</svg>
