<svg id="icon-transaction" xmlns="http://www.w3.org/2000/svg" width="24" height="18" viewBox="0 0 24 18">
  <path id="Path_44" data-name="Path 44" d="M6.418,24.582a.919.919,0,0,1-.909-.928,1.286,1.286,0,0,0-1.273-1.3H3.509a.928.928,0,0,1,0-1.856h.727a3.123,3.123,0,0,1,3.091,3.155A.919.919,0,0,1,6.418,24.582Z" transform="translate(-2.6 -7.325)" fill="#bac1d9"/>
  <path id="Path_45" data-name="Path 45" d="M21.109,24.582a.919.919,0,0,1-.909-.928A3.123,3.123,0,0,1,23.291,20.5h.727a.928.928,0,0,1,0,1.856h-.727a1.286,1.286,0,0,0-1.273,1.3A.919.919,0,0,1,21.109,24.582Z" transform="translate(-4.2 -7.325)" fill="#bac1d9"/>
  <path id="Path_46" data-name="Path 46" d="M24.018,14.182h-.727A3.123,3.123,0,0,1,20.2,11.028a.909.909,0,1,1,1.818,0,1.286,1.286,0,0,0,1.273,1.3h.727a.928.928,0,0,1,0,1.856Z" transform="translate(-4.2 -6.574)" fill="#bac1d9"/>
  <path id="Path_47" data-name="Path 47" d="M13.6,21.358a3.924,3.924,0,0,1-2.864-1.225,4.181,4.181,0,0,1,.018-5.827,3.98,3.98,0,0,1,5.709.019,4.192,4.192,0,0,1,.86,4.489A4.046,4.046,0,0,1,13.6,21.358Zm0-6.495a2.414,2.414,0,0,0-.455,0,2.365,2.365,0,0,0-1.118,3.915,2.2,2.2,0,0,0,3.136,0,2.307,2.307,0,0,0,.523-2.5A2.227,2.227,0,0,0,13.6,14.864Z" transform="translate(-3.233 -6.791)" fill="#bac1d9"/>
  <path id="Path_48" data-name="Path 48" d="M4.236,14.182H3.509a.928.928,0,0,1,0-1.856h.727a1.286,1.286,0,0,0,1.273-1.3.909.909,0,1,1,1.818,0A3.123,3.123,0,0,1,4.236,14.182Z" transform="translate(-2.6 -6.574)" fill="#bac1d9"/>
  <path id="Path_49" data-name="Path 49" d="M22.418,24.516H3.509a.919.919,0,0,1-.909-.928V10.228A.919.919,0,0,1,3.509,9.3H22.418a.919.919,0,0,1,.909.928V23.589A.919.919,0,0,1,22.418,24.516Zm-18-1.856H21.509V11.156H4.418Z" transform="translate(-2.6 -6.517)" fill="#bac1d9"/>
  <path id="Path_50" data-name="Path 50" d="M25.966,21.516H23.139a.928.928,0,0,1,0-1.856h1.918V8.156H7.448v1.856a.909.909,0,1,1-1.818,0V7.228A.919.919,0,0,1,6.539,6.3H25.966a.919.919,0,0,1,.909.928V20.589A.919.919,0,0,1,25.966,21.516Z" transform="translate(-2.875 -6.3)" fill="#bac1d9"/>
</svg>
